<svg width="151" height="46" viewBox="0 0 151 46" fill="none" xmlns="http://www.w3.org/2000/svg">
<path d="M7.44 33.312L7.968 32.544C8.704 31.584 9.216 30.592 9.504 29.568C9.792 28.512 9.936 27.088 9.936 25.296V8.592C9.936 7.216 9.84 6.32 9.648 5.904C9.456 5.456 9.04 5.232 8.4 5.232H6.432C5.376 5.232 4.56 5.344 3.984 5.568C3.44 5.792 2.992 6.176 2.64 6.72001C2.32 7.264 2.016 8.064 1.728 9.12L1.488 10.176L1.63913e-06 9.648V1.92L0.720002 1.344L1.488 1.92C2.256 2.528 3.888 2.832 6.384 2.832H17.76C20.288 2.832 21.92 2.528 22.656 1.92L23.424 1.344L24.144 1.92V9.648L22.656 10.176L22.416 9.12C22 7.552 21.488 6.512 20.88 6C20.272 5.488 19.216 5.232 17.712 5.232H15.696C15.088 5.232 14.672 5.456 14.448 5.904C14.256 6.352 14.16 7.248 14.16 8.592V28.272C14.16 29.616 14.336 30.544 14.688 31.056C15.072 31.536 15.84 31.952 16.992 32.304L18.048 32.544L17.52 34.032H7.968L7.44 33.312ZM30.3499 34.656C28.9419 34.656 27.6299 34.256 26.4139 33.456C25.2299 32.624 24.2699 31.424 23.5339 29.856C22.8299 28.256 22.4779 26.32 22.4779 24.048C22.4779 20.304 23.4859 17.344 25.5019 15.168C27.5499 12.992 30.3019 11.904 33.7579 11.904C34.9099 11.904 36.4779 12.08 38.4619 12.432C39.9339 12.688 41.2619 12.864 42.4459 12.96L43.0219 13.488L42.3979 14.304C42.1739 14.688 42.0139 14.992 41.9179 15.216C41.8539 15.408 41.8219 15.68 41.8219 16.032V30.192C41.8219 31.088 42.2859 31.536 43.2139 31.536C43.9179 31.536 44.6379 31.28 45.3739 30.768L46.1899 31.872C45.4219 32.736 44.6059 33.424 43.7419 33.936C42.8779 34.416 42.0939 34.656 41.3899 34.656C40.1739 34.656 39.2939 34.304 38.7499 33.6C38.2059 32.864 37.9339 31.68 37.9339 30.048C36.7819 31.744 35.5819 32.944 34.3339 33.648C33.1179 34.32 31.7899 34.656 30.3499 34.656ZM32.0299 31.248C34.4619 31.248 36.4299 29.936 37.9339 27.312V15.552C36.6859 14.72 35.2779 14.304 33.7099 14.304C31.6299 14.304 29.9979 15.088 28.8139 16.656C27.6619 18.192 27.0859 20.384 27.0859 23.232C27.0859 25.984 27.5499 28.016 28.4779 29.328C29.4379 30.608 30.6219 31.248 32.0299 31.248ZM59.193 34.656C57.497 34.656 55.913 34.416 54.441 33.936C53.001 33.424 51.849 32.736 50.985 31.872V4.70401C50.985 4.352 50.921 4.112 50.793 3.984C50.665 3.824 50.441 3.744 50.121 3.744H48.249L47.817 2.64C48.649 1.872 49.609 1.248 50.697 0.768004C51.785 0.256003 52.761 2.86102e-06 53.625 2.86102e-06C54.041 2.86102e-06 54.377 0.128003 54.633 0.384004C54.889 0.640004 55.017 0.976005 55.017 1.392V30.816C56.265 31.744 57.769 32.208 59.529 32.208C61.481 32.208 63.017 31.408 64.137 29.808C65.257 28.176 65.817 25.984 65.817 23.232C65.817 20.544 65.273 18.384 64.185 16.752C63.097 15.12 61.641 14.304 59.817 14.304C59.017 14.304 58.377 14.4 57.897 14.592C57.449 14.752 57.177 14.832 57.081 14.832C56.921 14.832 56.761 14.736 56.601 14.544C56.473 14.352 56.409 14.144 56.409 13.92C56.409 13.568 56.553 13.28 56.841 13.056C58.153 12.288 59.625 11.904 61.257 11.904C63.017 11.904 64.585 12.352 65.961 13.248C67.369 14.144 68.457 15.392 69.225 16.992C70.025 18.56 70.425 20.368 70.425 22.416C70.425 24.72 69.929 26.816 68.937 28.704C67.977 30.56 66.649 32.016 64.953 33.072C63.257 34.128 61.337 34.656 59.193 34.656ZM78.9788 8.25601C78.4988 8.25601 77.9388 7.92 77.2988 7.248C76.6588 6.576 76.3388 5.968 76.3388 5.424C76.3388 4.88 76.6428 4.272 77.2508 3.60001C77.8908 2.928 78.4668 2.592 78.9788 2.592C79.5228 2.592 80.1148 2.928 80.7548 3.60001C81.3948 4.272 81.7148 4.88 81.7148 5.424C81.7148 5.968 81.3948 6.576 80.7548 7.248C80.1148 7.92 79.5228 8.25601 78.9788 8.25601ZM80.4188 34.656C79.2348 34.656 78.3708 34.304 77.8268 33.6C77.3148 32.864 77.0588 31.68 77.0588 30.048V16.608C77.0588 16.224 76.9948 15.952 76.8668 15.792C76.7388 15.632 76.5148 15.552 76.1948 15.552H74.2268L73.8908 14.496C74.7228 13.728 75.6668 13.104 76.7228 12.624C77.8108 12.144 78.7548 11.904 79.5548 11.904C79.9708 11.904 80.3068 12.032 80.5628 12.288C80.8508 12.512 80.9948 12.816 80.9948 13.2V30.192C80.9948 31.184 81.4268 31.68 82.2908 31.68C82.9628 31.68 83.6988 31.376 84.4988 30.768L85.3148 31.872C84.5148 32.704 83.6668 33.376 82.7708 33.888C81.9068 34.4 81.1228 34.656 80.4188 34.656ZM88.4456 44.976L88.9256 44.256C89.4696 43.52 89.8536 42.736 90.0776 41.904C90.3016 41.104 90.4136 40.016 90.4136 38.64V17.472C90.4136 17.056 90.3496 16.736 90.2216 16.512C90.0936 16.288 89.8536 16.128 89.5016 16.032L87.2456 15.504V14.16C87.6936 13.744 88.5576 13.344 89.8376 12.96C91.1176 12.576 92.2376 12.384 93.1976 12.384C93.9336 12.384 94.3016 13.056 94.3016 14.4V14.592C96.1576 12.8 98.2536 11.904 100.59 11.904C102.35 11.904 103.934 12.352 105.342 13.248C106.75 14.144 107.838 15.392 108.606 16.992C109.406 18.56 109.806 20.368 109.806 22.416C109.806 24.72 109.39 26.816 108.558 28.704C107.726 30.56 106.574 32.016 105.102 33.072C103.662 34.128 102.046 34.656 100.254 34.656C98.5256 34.656 97.0856 34.256 95.9336 33.456C95.6456 33.296 95.5016 33.04 95.5016 32.688C95.5016 32.368 95.5496 32.112 95.6456 31.92C95.7736 31.696 95.9496 31.584 96.1736 31.584C96.2696 31.584 96.5736 31.712 97.0856 31.968C97.6296 32.192 98.3336 32.304 99.1976 32.304C100.99 32.304 102.43 31.456 103.518 29.76C104.638 28.064 105.198 25.888 105.198 23.232C105.198 20.736 104.638 18.704 103.518 17.136C102.43 15.536 100.974 14.736 99.1496 14.736C98.1896 14.736 97.3256 14.864 96.5576 15.12C95.7896 15.376 95.0376 15.808 94.3016 16.416V40.8C94.3016 41.92 94.4136 42.704 94.6376 43.152C94.8936 43.6 95.3896 43.904 96.1256 44.064L96.9896 44.256L96.6056 45.552H88.9256L88.4456 44.976ZM119.409 34.656C118.193 34.656 117.313 34.304 116.769 33.6C116.257 32.864 116.001 31.68 116.001 30.048V4.70401C116.001 4.352 115.937 4.112 115.809 3.984C115.681 3.824 115.457 3.744 115.137 3.744H113.265L112.833 2.64C113.665 1.872 114.625 1.248 115.713 0.768004C116.801 0.256003 117.777 2.86102e-06 118.641 2.86102e-06C119.057 2.86102e-06 119.393 0.128003 119.649 0.384004C119.905 0.640004 120.033 0.976005 120.033 1.392L119.937 30.192C119.937 30.672 120.049 31.04 120.273 31.296C120.497 31.552 120.817 31.68 121.233 31.68C122.033 31.68 122.753 31.376 123.393 30.768L124.257 31.872C123.521 32.704 122.705 33.376 121.809 33.888C120.913 34.4 120.113 34.656 119.409 34.656ZM134.647 34.656C133.239 34.656 131.927 34.256 130.711 33.456C129.527 32.624 128.567 31.424 127.831 29.856C127.127 28.256 126.775 26.32 126.775 24.048C126.775 20.304 127.783 17.344 129.799 15.168C131.847 12.992 134.599 11.904 138.055 11.904C139.207 11.904 140.775 12.08 142.759 12.432C144.231 12.688 145.559 12.864 146.743 12.96L147.319 13.488L146.695 14.304C146.471 14.688 146.311 14.992 146.215 15.216C146.151 15.408 146.119 15.68 146.119 16.032V30.192C146.119 31.088 146.583 31.536 147.511 31.536C148.215 31.536 148.935 31.28 149.671 30.768L150.487 31.872C149.719 32.736 148.903 33.424 148.039 33.936C147.175 34.416 146.391 34.656 145.687 34.656C144.471 34.656 143.591 34.304 143.047 33.6C142.503 32.864 142.231 31.68 142.231 30.048C141.079 31.744 139.879 32.944 138.631 33.648C137.415 34.32 136.087 34.656 134.647 34.656ZM136.327 31.248C138.759 31.248 140.727 29.936 142.231 27.312V15.552C140.983 14.72 139.575 14.304 138.007 14.304C135.927 14.304 134.295 15.088 133.111 16.656C131.959 18.192 131.383 20.384 131.383 23.232C131.383 25.984 131.847 28.016 132.775 29.328C133.735 30.608 134.919 31.248 136.327 31.248Z" fill="black"/>
</svg>
